<?xml version="1.0" encoding="UTF-8"?>
<svg version="1.1" xmlns="http://www.w3.org/2000/svg" width="240" height="130">
<path d="M0 0 C79.2 0 158.4 0 240 0 C240 42.9 240 85.8 240 130 C160.8 130 81.6 130 0 130 C0 87.1 0 44.2 0 0 Z " fill="#FBFBFB" transform="translate(0,0)"/>
<path d="M0 0 C1.51793152 -0.05314362 1.51793152 -0.05314362 3.06652832 -0.10736084 C7.72858987 -0.23128217 12.39052917 -0.32202038 17.05371094 -0.39160156 C19.5079964 -0.43821421 21.96197412 -0.50633462 24.41503906 -0.59667969 C45.91780143 -1.37521796 45.91780143 -1.37521796 50.69360352 2.51318359 C52.99691758 5.32707735 54.61806243 8.0504668 56.25585938 11.28808594 C57.34057054 12.69149929 58.46182403 14.06787241 59.62695312 15.40527344 C65.45216605 22.53610556 71.18320205 29.72106709 76.76757812 37.04199219 C79.9965498 41.27031429 83.29434242 45.44445645 86.59033203 49.62060547 C87.815205 51.17404755 89.03571359 52.73092817 90.25585938 54.28808594 C91.15498047 55.38443359 91.15498047 55.38443359 92.07226562 56.50292969 C93.25585938 58.28808594 93.25585938 58.28808594 93.25585938 61.28808594 C91.63935134 63.00344518 89.96210829 64.66196473 88.25585938 66.28808594 C86.48198904 68.31459841 84.73301143 70.34795881 83.00585938 72.41308594 C82.52697266 72.98220703 82.04808594 73.55132812 81.5546875 74.13769531 C77.85088169 78.54979865 74.2048554 83.00789083 70.56835938 87.47558594 C67.99439214 90.60608663 65.37999857 93.699662 62.75585938 96.78808594 C54.19948075 106.01968091 54.19948075 106.01968091 47.25585938 116.28808594 C21.84585938 116.28808594 -3.56414062 116.28808594 -29.74414062 116.28808594 C-29.74414062 85.26808594 -29.74414062 54.24808594 -29.74414062 22.28808594 C-21.82414062 22.28808594 -13.90414062 22.28808594 -5.74414062 22.28808594 C-5.78372531 15.42195787 -5.78372531 15.42195787 -5.83422852 8.5559082 C-5.83672607 7.70569092 -5.83922363 6.85547363 -5.84179688 5.97949219 C-5.8496521 4.66766968 -5.8496521 4.66766968 -5.85766602 3.3293457 C-5.64062831 -0.57313235 -3.4009699 0.11771587 0 0 Z " fill="#030403" transform="translate(136.744140625,5.7119140625)"/>
<path d="M0 0 C24.75 0 49.5 0 75 0 C75 7.59 75 15.18 75 23 C71 27 71 27 68.671875 28.34375 C65.03304314 30.59940016 62.24577457 33.46383296 59.25 36.5 C58.66089844 37.08136719 58.07179687 37.66273437 57.46484375 38.26171875 C56.62373047 39.10669922 56.62373047 39.10669922 55.765625 39.96875 C55.25805664 40.47857422 54.75048828 40.98839844 54.22753906 41.51367188 C52.76598097 43.10157644 52.76598097 43.10157644 52 46 C52.99 46 53.98 46 55 46 C55 46.66 55 47.32 55 48 C55.969375 48.020625 56.93875 48.04125 57.9375 48.0625 C63.33368693 48.82082362 67.15267961 52.35354373 71 56 C72.875 58.75 72.875 58.75 74 61 C74.515625 61.474375 75.03125 61.94875 75.5625 62.4375 C79.66312741 66.89470371 79.33623124 73.1889958 79.3125 78.875 C79.32861328 79.63941406 79.34472656 80.40382813 79.36132812 81.19140625 C79.36607556 86.78388042 78.20551388 90.86303676 76 96 C75.608125 97.010625 75.21625 98.02125 74.8125 99.0625 C69.74198295 107.28023453 61.55117223 111.14496334 53 115 C52.34515625 115.34289062 51.6903125 115.68578125 51.015625 116.0390625 C41.14596202 120.71186754 26.70354115 118.65685388 16.74609375 115.22265625 C8.5260784 111.89176307 -0.26646109 106.67159754 -5 99 C-5.3125 96 -5.3125 96 -4 93 C-2.17135675 91.3079542 -0.2632654 89.92403655 1.796875 88.5234375 C4.58766925 86.59363297 7.04487368 84.37790527 9.5546875 82.1015625 C11 81 11 81 13 81 C14.06357987 82.2138363 15.07636225 83.47245038 16.0625 84.75 C20.63184019 90.05269108 25.04131077 92.55617788 32.03125 93.33984375 C37.61545392 93.51262234 42.44715762 93.55343795 47 90 C49.96944279 86.77537072 51.84153532 83.82234378 52.2265625 79.39453125 C51.98694346 75.53210046 51.53685452 72.80528177 49.375 69.5625 C43.33697606 65.59011583 38.21123002 64.54604693 31.125 64.375 C23.10683391 64.10683391 23.10683391 64.10683391 22 63 C20.61881636 56.92561071 19.9341202 50.98629337 22 45 C26.6402205 38.28726995 32.95278484 32.93736198 39.14233398 27.68554688 C41.08903497 26.1235012 41.08903497 26.1235012 42 24 C28.14 24 14.28 24 0 24 C0 16.08 0 8.16 0 0 Z " fill="#080808" transform="translate(12,6)"/>
<path d="M0 0 C6.868125 -0.309375 13.73625 -0.61875 20.8125 -0.9375 C22.9572583 -1.07406006 25.1020166 -1.21062012 27.31176758 -1.35131836 C40.46853451 -1.83712315 40.46853451 -1.83712315 44.95944214 1.42199707 C48.32528837 4.90635775 50.67503656 8.85099265 52.92698669 13.11322021 C54.61244638 16.07692182 56.73013862 18.53068341 58.9375 21.125 C60.29166667 22.75 61.64583333 24.375 63 26 C64.08474609 27.20269531 64.08474609 27.20269531 65.19140625 28.4296875 C67.37699709 31.53577556 68.11022184 33.18536577 68 37 C66.26484352 39.54690794 64.6582278 41.54363105 62.5625 43.75 C61.44405941 44.98714955 60.32687539 46.22543624 59.2109375 47.46484375 C58.66018555 48.0666748 58.10943359 48.66850586 57.54199219 49.28857422 C55.4970409 51.55822408 53.58373228 53.91785093 51.6875 56.3125 C51.13449219 57.00988281 50.58148438 57.70726562 50.01171875 58.42578125 C47.97117057 60.83469844 47.97117057 60.83469844 46.94946289 63.2746582 C45.24089403 66.36845451 43.93809324 67.98622718 41 70 C34.22447122 71.55551797 26.9378937 70.83376025 20.0625 70.5625 C13.441875 70.376875 6.82125 70.19125 0 70 C0 46.9 0 23.8 0 0 Z " fill="#36E87B" transform="translate(132,30)"/>
<path d="M0 0 C8.58 0 17.16 0 26 0 C25.67 7.26 25.34 14.52 25 22 C17.08 22 9.16 22 1 22 C1 53.02 1 84.04 1 116 C26.08 116 51.16 116 77 116 C77 116.33 77 116.66 77 117 C51.59 117 26.18 117 0 117 C0 78.39 0 39.78 0 0 Z " fill="#39CD7E" transform="translate(106,6)"/>
<path d="M0 0 C0.33 0 0.66 0 1 0 C1 7.26 1 14.52 1 22 C14.86 22 28.72 22 43 22 C43 22.33 43 22.66 43 23 C29.14 23 15.28 23 1 23 C1 46.1 1 69.2 1 93 C0.67 93 0.34 93 0 93 C-1.14984709 46.22629969 -1.14984709 46.22629969 -1 23 C-8.26 23 -15.52 23 -23 23 C-23 53.03 -23 83.06 -23 114 C2.08 114 27.16 114 53 114 C53 114.33 53 114.66 53 115 C27.59 115 2.18 115 -24 115 C-24 83.98 -24 52.96 -24 21 C-16.08 21 -8.16 21 0 21 C0 14.07 0 7.14 0 0 Z " fill="#1B4D2B" transform="translate(131,7)"/>
<path d="M0 0 C10.5496875 -0.12375 10.5496875 -0.12375 21.3125 -0.25 C24.6388855 -0.30462402 24.6388855 -0.30462402 28.0324707 -0.36035156 C29.78856436 -0.37203307 31.54466883 -0.38222616 33.30078125 -0.390625 C34.21388062 -0.41108887 35.12697998 -0.43155273 36.06774902 -0.45263672 C42.49413783 -0.45619655 42.49413783 -0.45619655 45.10620117 1.89941406 C46 4 46 4 46 6 C45.01 6.33 44.02 6.66 43 7 C42.505 4.03 42.505 4.03 42 1 C37.52063524 1.14010685 33.04156447 1.28812353 28.5625 1.4375 C27.30244141 1.47681641 26.04238281 1.51613281 24.74414062 1.55664062 C13.46787348 1.10282007 13.46787348 1.10282007 3.27172852 4.34936523 C1.3766966 6.80901408 1.87154143 8.98122357 2 12 C1.67 12.66 1.34 13.32 1 14 C1.66 14.33 2.32 14.66 3 15 C2.93433838 15.84570557 2.86867676 16.69141113 2.80102539 17.56274414 C2.00526397 28.51706874 1.686628 39.45863853 1.4375 50.4375 C1.293125 56.563125 1.14875 62.68875 1 69 C14.2 69 27.4 69 41 69 C41 69.33 41 69.66 41 70 C27.47 70 13.94 70 0 70 C0 46.9 0 23.8 0 0 Z " fill="#2FCB5C" transform="translate(132,30)"/>
<path d="M0 0 C0.99 0.33 1.98 0.66 3 1 C4 3.4375 4 3.4375 4 7 C1.69732549 10.36376443 -0.95168429 13.29439434 -4 16 C-4.66 16 -5.32 16 -6 16 C-6 15.34 -6 14.68 -6 14 C-5.34 14 -4.68 14 -4 14 C-1.59009896 7.11175931 -1.59009896 7.11175931 0 0 Z " fill="#28E28D" transform="translate(196,60)"/>
<path d="M0 0 C4.50229474 -0.09889302 9.00395727 -0.17147709 13.50708008 -0.21972656 C15.03876762 -0.2398398 16.57037839 -0.2671345 18.10180664 -0.30175781 C20.30374073 -0.35029315 22.50465982 -0.37296996 24.70703125 -0.390625 C25.39150833 -0.41127014 26.07598541 -0.43191528 26.78120422 -0.45318604 C30.02022013 -0.45471403 31.58297474 -0.40500019 33.95581055 1.89941406 C35 4 35 4 35 6 C34.01 6.33 33.02 6.66 32 7 C31.67 5.02 31.34 3.04 31 1 C20.77 1 10.54 1 0 1 C0 0.67 0 0.34 0 0 Z " fill="#2BDE7E" transform="translate(143,30)"/>
<path d="M0 0 C1.77049689 -0.05410687 3.54146849 -0.09284119 5.3125 -0.125 C6.29863281 -0.14820312 7.28476563 -0.17140625 8.30078125 -0.1953125 C11 0 11 0 14 2 C13.40832031 2.02578125 12.81664062 2.0515625 12.20703125 2.078125 C6.9279987 2.45704414 3.89363339 3.10636661 0 7 C0 4.69 0 2.38 0 0 Z " fill="#14DC5B" transform="translate(132,30)"/>
<path d="M0 0 C0.99 0.33 1.98 0.66 3 1 C3.25 3.25 3.25 3.25 3 6 C1.125 8.3125 1.125 8.3125 -1 10 C-1.66 10 -2.32 10 -3 10 C-2.690625 9.4225 -2.38125 8.845 -2.0625 8.25 C-0.75540822 5.48204095 0 3.06638853 0 0 Z " fill="#0C432A" transform="translate(199,62)"/>
<path d="M0 0 C0.33 0.66 0.66 1.32 1 2 C-0.80831392 5.61662784 -3.05278838 8.25604436 -6 11 C-6.66 10.67 -7.32 10.34 -8 10 C-5.36 6.7 -2.72 3.4 0 0 Z " fill="#0F4623" transform="translate(193,74)"/>
<path d="M0 0 C2.8125 -0.25 2.8125 -0.25 6 0 C8.04040776 2.04040776 9 3.08325244 9 6 C8.01 6.33 7.02 6.66 6 7 C5.67 5.02 5.34 3.04 5 1 C3.35 1 1.7 1 0 1 C0 0.67 0 0.34 0 0 Z " fill="#26C270" transform="translate(169,30)"/>
<path d="M0 0 C1.70884005 1.62339805 3.37446717 3.29319053 5 5 C5 5.66 5 6.32 5 7 C3.68 7.33 2.36 7.66 1 8 C0.67 5.36 0.34 2.72 0 0 Z " fill="#1EC270" transform="translate(187,47)"/>
</svg>
